<?xml version="1.0" encoding="UTF-8"?>
<svg width="1092.3" height="1092.3" version="1.1" viewBox="0 0 1024 1024" xml:space="preserve" xmlns="http://www.w3.org/2000/svg" xmlns:cc="http://creativecommons.org/ns#" xmlns:dc="http://purl.org/dc/elements/1.1/" xmlns:rdf="http://www.w3.org/1999/02/22-rdf-syntax-ns#" xmlns:xlink="http://www.w3.org/1999/xlink"><metadata><rdf:RDF><cc:Work rdf:about=""><dc:format>image/svg+xml</dc:format><dc:type rdf:resource="http://purl.org/dc/dcmitype/StillImage"/><dc:title/></cc:Work></rdf:RDF></metadata><defs><linearGradient id="f"><stop stop-color="#a3cd77" offset="0"/><stop stop-color="#53782c" offset="1"/></linearGradient><mask id="c" maskUnits="userSpaceOnUse"><g transform="matrix(1.0962 0 0 1.0962 -77.294 11.329)" fill="#fff"><path class="st2" d="m853 898h-682c-35.9 0-65-29.1-65-65v-642c0-35.9 29.1-65 65-65h682c35.9 0 65 29.1 65 65v642c0 35.9-29.1 65-65 65z" fill="#fff"/></g></mask><linearGradient id="b" x1="497.86" x2="497.39" y1="104.8" y2="915.74" gradientUnits="userSpaceOnUse" xlink:href="#f"/><linearGradient id="e" x1="255.55" x2="616.27" y1="566.21" y2="163.65" gradientTransform="matrix(.55558 -.55558 .55558 .55558 -38.438 513.48)" gradientUnits="userSpaceOnUse"><stop stop-color="#fff" stop-opacity="0" offset="0"/><stop stop-color="#fff" offset="1"/></linearGradient><linearGradient id="d" x1="761.36" x2="419.69" y1="560.98" y2="846.14" gradientTransform="matrix(.55558 -.55558 .55558 .55558 -72.081 513.48)" gradientUnits="userSpaceOnUse"><stop stop-color="#fff" stop-opacity="0" offset="0"/><stop stop-color="#fff" offset="1"/></linearGradient><linearGradient id="a" x1="512.49" x2="512.49" y1="97.743" y2="914.13" gradientUnits="userSpaceOnUse"><stop stop-color="#27b2fd" offset="0"/><stop stop-color="#026094" offset="1"/></linearGradient></defs><style type="text/css">
	.st0{fill:#77A646;}
	.st1{fill:#A2CF6E;}
	.st2{fill:#8BC34A;}
	.st3{display:none;}
	.st4{fill:#6F9C3B;stroke:#6F9C3B;stroke-miterlimit:10;}
	.st5{fill:#FFFFFF;}
	.st6{fill:#6F9C3B;}
	.st7{fill:none;stroke:#6F9C3B;stroke-miterlimit:10;}
</style><g display="none"><g transform="matrix(1.0962 0 0 1.0962 -47.212 -49.246)" fill="url(#a)"><path class="st0" d="m853 918h-682c-35.9 0-65-29.1-65-65v-682c0-35.9 29.1-65 65-65h682c35.9 0 65 29.1 65 65v682c0 35.9-29.1 65-65 65z" fill="url(#a)"/><path class="st1" d="m853 883h-682c-35.9 0-65-29.1-65-65v-647c0-35.9 29.1-65 65-65h682c35.9 0 65 29.1 65 65v647c0 35.9-29.1 65-65 65z" fill="url(#a)"/></g><g transform="matrix(1.0962 0 0 1.0962 -47.212 -49.246)"><path class="st2" d="m853 898h-682c-35.9 0-65-29.1-65-65v-642c0-35.9 29.1-65 65-65h682c35.9 0 65 29.1 65 65v642c0 35.9-29.1 65-65 65z" fill="#0288d1"/></g></g><g><g transform="matrix(1.0962 0 0 1.0962 -47.371 -49.246)" fill="url(#b)"><path class="st0" d="m853 918h-682c-35.9 0-65-29.1-65-65v-682c0-35.9 29.1-65 65-65h682c35.9 0 65 29.1 65 65v682c0 35.9-29.1 65-65 65z" fill="url(#b)"/><path class="st1" d="m853 883h-682c-35.9 0-65-29.1-65-65v-647c0-35.9 29.1-65 65-65h682c35.9 0 65 29.1 65 65v647c0 35.9-29.1 65-65 65z" fill="url(#b)"/></g><g transform="matrix(1.0962 0 0 1.0962 -47.371 -49.246)"><path class="st2" d="m853 898h-682c-35.9 0-65-29.1-65-65v-642c0-35.9 29.1-65 65-65h682c35.9 0 65 29.1 65 65v642c0 35.9-29.1 65-65 65z" fill="#7cb342"/></g></g><g><g transform="translate(29.922 -60.575)" mask="url(#c)"><g transform="translate(-28.047 60.575)" opacity=".2"><g transform="translate(-1.1867e-6)" stroke-width="3.4287"><path d="m199.3 550.35h27.704l707.11 707.11h-27.704z"/><path d="m227.01 550.35c25.784 0 44.436-13.441 44.436-44.985l707.11 707.11c0 31.544-18.652 44.985-44.436 44.985z"/><path d="m271.45 505.36c0-14.75-4.0781-25.361-11.197-32.48l707.11 707.11c7.1186 7.1186 11.197 17.73 11.197 32.48z"/><path d="m260.25 472.88c-8.1056-8.1056-20.153-11.682-34.611-11.682l707.11 707.11c14.458 0 26.506 3.5767 34.611 11.682z"/><path d="m225.64 461.2h-26.333l707.11 707.11h26.333z"/><path d="m222.89 531.42v-51.294l707.11 707.11v51.294z"/><path d="m222.89 480.13h1.3715l707.11 707.11h-1.3715z"/><path d="m224.27 480.13c6.7816 0 12.804 1.2144 16.99 5.4l707.11 707.11c-4.1856-4.1856-10.208-5.4-16.99-5.4z"/><path d="m241.26 485.53c3.7713 3.7713 6.0513 9.9548 6.0513 19.836l707.11 707.11c0-9.8807-2.28-16.064-6.0513-19.836z"/><path d="m247.31 505.36c0 20.847-10.149 26.058-23.041 26.058l707.11 707.11c12.892 0 23.041-5.2117 23.041-26.058z"/><path d="m199.3 550.35h27.704c25.784 0 44.436-13.441 44.436-44.985s-18.652-44.162-45.808-44.162h-26.333zm23.59-18.927v-51.294h1.3715c12.892 0 23.041 4.3888 23.041 25.236s-10.149 26.058-23.041 26.058z"/></g><g stroke-width="40.32"><path d="m280.75 280.51-85.531-85.531 707.11 707.11 85.531 85.531z"/><path d="m195.22 194.98-1e-5 228.08 707.11 707.11 1e-5 -228.08z"/><path d="m195.22 423.06h228.08l707.11 707.11h-228.08z"/><path d="m423.3 423.06-85.531-85.531 707.11 707.11 85.531 85.531z"/><path d="m337.77 337.53c94.369-94.369 247.76-94.37 342.12 1e-5l707.11 707.11c-94.37-94.37-247.76-94.369-342.12 0z"/><path d="m679.89 337.53c1.9478 1.9478 3.8565 3.8522 5.7258 5.7215l707.11 707.11c-1.8693-1.8693-3.778-3.7737-5.7258-5.7215z"/><path d="m685.62 343.25c25.765 25.765 44.045 44.854 54.146 78.879l707.11 707.11c-10.101-34.025-28.381-53.114-54.146-78.878z"/><path d="m739.77 422.13h83.25l707.11 707.11h-83.25z"/><path d="m823.02 422.13c-12.83-57.306-41.34-96.86-86.101-141.62l707.11 707.11c44.761 44.761 73.271 84.315 86.101 141.62z"/><path d="m736.91 280.51l-1.2e-4 -1.2e-4 707.11 707.11c1e-4 4e-5 1e-4 8e-5 1e-4 1.2e-4z"/><path d="m736.91 280.51l-1e-5 -1e-5 707.11 707.11v1e-5z"/><path d="m736.91 280.51c-126.02-126.02-330.15-126.02-456.17 1e-5l707.11 707.11c126.02-126.02 330.15-126.02 456.17-1e-5z"/><path d="m679.89 679.65c-94.37 94.37-247.76 94.369-342.12 0l707.11 707.11c94.369 94.369 247.76 94.37 342.12 0z"/><path d="m337.77 679.65l-9.3e-4 -9.3e-4 707.11 707.11c3e-4 3e-4 7e-4 6e-4 0 9e-4z"/><path d="m337.77 679.65c-1.9487-1.9487-3.8582-3.8539-5.7283-5.724l707.11 707.11c1.8701 1.87 3.7796 3.7753 5.7283 5.724z"/><path d="m332.04 673.93c-25.764-25.764-44.042-44.852-54.143-78.875l707.11 707.11c10.1 34.023 28.379 53.112 54.143 78.875z"/><path d="m277.9 595.05h-83.25l707.11 707.11h83.25z"/><path d="m194.65 595.05c12.829 57.306 41.34 96.859 86.101 141.62l707.11 707.11c-44.761-44.761-73.272-84.315-86.101-141.62z"/><path d="m280.75 736.67l6e-5 6e-5 707.11 707.11c-2e-5 0-4e-5 -1e-4 -6e-5 -1e-4z"/><path d="m280.75 736.67l2e-5 2e-5 707.11 707.11h-2e-5z"/><path d="m280.75 736.67c126.02 126.02 330.15 126.02 456.17-2e-5l707.11 707.11c-126.02 126.02-330.15 126.02-456.17 0z"/><path d="m736.91 736.67 85.531 85.531 707.11 707.11-85.531-85.531z"/><path d="m822.45 822.2 1e-5 -228.08 707.11 707.11v228.08z"/><path d="m822.45 594.12h-228.08l707.11 707.11h228.08z"/><path d="m280.75 280.51-85.531-85.531-1e-5 228.08h228.08l-85.531-85.531c94.369-94.369 247.76-94.37 342.12 1e-5 28.795 28.795 49.038 48.107 59.872 84.6h83.25c-12.83-57.306-41.34-96.86-86.101-141.62-126.02-126.02-330.15-126.02-456.17 0zm399.15 399.15c-94.37 94.37-247.76 94.369-342.12 0-28.796-28.796-49.038-48.107-59.872-84.6h-83.25c12.829 57.306 41.34 96.859 86.101 141.62 126.02 126.02 330.15 126.02 456.17 0l85.531 85.531 1e-5 -228.08h-228.08z"/></g></g></g><g fill="#fff"><path d="m282.78 280.51-85.531-85.531-1e-5 228.08h228.08l-85.531-85.531c94.369-94.369 247.76-94.37 342.12 1e-5 28.795 28.795 49.038 48.107 59.872 84.6h83.25c-12.83-57.306-41.34-96.86-86.101-141.62-126.02-126.02-330.15-126.02-456.17 0zm399.15 399.15c-94.37 94.37-247.76 94.369-342.12 0-28.796-28.796-49.038-48.107-59.872-84.6h-83.25c12.829 57.306 41.34 96.859 86.101 141.62 126.02 126.02 330.15 126.02 456.17 0l85.531 85.531 1e-5 -228.08h-228.08z" stroke-width="40.32"/><g aria-label="DAVDROID"><path d="m201.34 550.35h27.704c25.784 0 44.436-13.441 44.436-44.985s-18.652-44.162-45.808-44.162h-26.333zm23.59-18.927v-51.294h1.3715c12.892 0 23.041 4.3888 23.041 25.236s-10.149 26.058-23.041 26.058z" stroke-width="3.4287"/><path d="m311.14 507.01c2.1944-8.5033 4.3888-19.201 6.3089-28.253h0.5486c2.1944 8.9147 4.3888 19.75 6.5832 28.253l1.5086 6.1717h-16.458zm-34.287 43.339h24.138l4.3888-18.927h24.961l4.3888 18.927h24.961l-27.156-89.147h-28.527z" stroke-width="3.4287"/><path d="m380.57 550.35h28.527l26.333-89.147h-24.138l-9.0519 38.95c-2.3315 9.4633-4.1145 18.652-6.5832 28.253h-0.5486c-2.4687-9.6005-4.1145-18.79-6.5832-28.253l-9.3262-38.95h-24.961z" stroke-width="3.4287"/><g stroke-width="5.5275" aria-label="x5"><path d="m449.65 601.24h39.356l6.1908-15.477c2.4321-6.4119 5.0853-12.824 7.5174-19.015h0.8844c3.3165 6.1908 6.4119 12.824 9.7284 19.015l8.844 15.477h40.682l-33.165-53.064 31.396-57.486h-39.356l-5.3064 15.477c-1.9899 6.1908-4.6431 12.824-6.633 19.015h-0.8844c-2.8743-6.1908-5.9697-12.824-8.844-19.015l-7.9596-15.477h-40.682l31.396 53.064z"/><path d="m601.96 514.52c18.539 0 34.492-11.785 34.492-32.192 0-19.258-13.509-28.168-29.318-28.168-3.018 0-5.4612 0.28743-8.6229 1.4372l1.1497-13.222h32.767v-20.695h-54.037l-2.2994 46.851 10.635 6.8983c5.4612-3.4492 7.7606-4.3115 12.647-4.3115 7.1858 0 12.36 4.024 12.36 11.785 0 8.048-4.8863 11.785-13.509 11.785-6.6109 0-12.934-3.7366-18.396-8.6229l-10.922 15.521c7.4732 7.4732 18.108 12.934 33.054 12.934z" baseline-shift="super"/></g>
</g></g></g><g display="none"><g transform="translate(-2.4272 .79448)" fill-rule="evenodd"><path d="m499.08 170.33-42.184 42.197-42.184 42.204c-9.5411 9.5078-10.91 27.212 1e-5 36.726l42.184 43.568 42.184 42.162c10.866 9.5498 19.06 6.8333 19.06-8.1629l-1e-5 -50.347c108.88-2e-5 197.29 88.48 197.29 197.34 3e-5 54.43-21.732 103.41-57.158 140.18l65.374 65.316c53.072-53.065 84.323-125.21 84.323-205.49-4e-5 -160.58-129.25-289.88-289.83-289.88l1e-5 -48.977c1e-5 -13.627-8.1938-17.691-19.06-6.8244" display="inline" fill="url(#e)"/><path d="m529.8 645.28c-9.5189-10.879-17.669-6.7891-17.669 8.1782v48.977c-108.86 1e-5 -197.34-87.084-197.34-197.31 2e-5 -54.448 21.799-103.42 57.136-138.83l-30.074-30.084-35.211-35.223c-53.05 51.711-85.759 125.19-85.759 205.51 0 159.22 130.68 289.85 291.24 289.85l-1e-5 47.632c-3e-5 14.985 8.1496 19.064 17.669 8.1784l43.553-42.188 42.206-42.195c9.5189-10.871 9.5189-27.212 3e-5 -38.115l-42.206-42.17-43.553-42.203" display="inline" fill="url(#d)"/></g><text x="351.67972" y="570.86444" fill="#ffffff" font-family="sans-serif" font-size="180.01px" letter-spacing="0px" stroke-width="4.5003" word-spacing="0px" style="line-height:1.25" xml:space="preserve"><tspan x="351.67972" y="570.86444" fill="#ffffff" font-family="'Source Sans Pro'" font-weight="600" letter-spacing="0px" stroke-width="4.5003">DAV</tspan></text>
</g></svg>
